<?xml version="1.0" encoding="UTF-8"?>
<svg id="Layer_2" xmlns="http://www.w3.org/2000/svg" viewBox="0 0 82.02 110.57">
  <defs>
    <style>
      .cls-1 {
        fill: #ffffff;
      }
    </style>
  </defs>
  <g id="Line_Weights">
    <path class="cls-1" d="M80.9,90.6l1.12-.47-16.29-38.69,14.12-33.85h-1.03c-.47,0-.77.21-.9.64l-13.02,31.27L44.07,0h-2.3l-5.81,13.57-15.36,36.81L7.6,19.5H0l16.82,39.94-13,31.16h1.02c.47,0,.77-.21.9-.64l11.9-28.57,20.71,49.17h2.64l2.86-6.67,18.1-43.39,12.67,30.09h6.28ZM42.86,102.46c-.06.14-.1.27-.16.4l-18.04-42.85h35.88l-17.68,42.45ZM61.07,58.73H24.11l-2.71-6.43L39.86,8.03l21.28,50.54-.07.16Z"/>
  </g>
</svg>