<svg viewBox="187.58349668874172 102.00710291199998 1061.577184849914 352.3321828693333" xmlns="http://www.w3.org/2000/svg" style="max-height: 500px" width="1061.577184849914" height="352.3321828693333">
  <defs>
    <style>
      .cls-1 {
        fill: #4e7a9b;
        stroke: #231f20;
        stroke-miterlimit: 10;
      }

      .cls-2 {
        fill: none;
        fill-rule: evenodd;
        stroke: #fff;
        stroke-linecap: square;
        stroke-linejoin: bevel;
        stroke-width: .74px;
      }
    </style>
  </defs>
  <g data-name="Layer 1" id="Layer_1">
    <rect height="884.21" width="1335.09" y=".5" x=".5" class="cls-1"/>
  </g>
  <g data-name="Layer 2" id="Layer_2">
    <path d="M1068.56,411.83c2.17-.39,6.19-.57,7.3,1.9.72,1.72-1.04,4.65-3.19,4.93-2.07.35-3.93-1.25-4.85-3.02-.73-1.38-1.19-3.26.6-3.77" class="cls-2"/>
    <path d="M1137.48,411.63c5.46,1.43-4.5,11.01-7.3,12.38-2.19,1.39-9.19,4.64-9.93.66.39-2.73,3.52-4.59,5.9-6.61,3.14-2.35,8.02-6.22,11.22-6.44" class="cls-2"/>
    <path d="M1138.28,398.09c2.05,1.5,5.23,3.29,7.44,4.73,1.87,1.26,3.82,2.6,3.73,4.99-.13,2.78-3.33,5.72-6,6.27-2.69.75-4.36-1.45-4.99-3.87-.75-2.47-1.54-5.47-2.38-7.93-.71-2.32-.91-3.83-.89-5.14.05-.95.97-.53,2.95.86" class="cls-2"/>
    <path d="M837.57,344.12c2.14,5.66-1.49,12.64-3.02,18.96-.88,2.94-1.92,5.93-3.33,8.3-2.09,3.55-5.31,6.01-8.39,3.13-2.11-2.27-2.22-6.11-2.11-9.19.24-6.53,2.57-12.32,7-16.83,2.06-1.9,7.37-8.18,9.79-4.45" class="cls-2"/>
    <path d="M1065.65,343.92c2.89,4.94,5.79,10.4,9.31,15.06,4.63,6.4,10.96,11.56,12.74,19.69,2.57,10.99-5.86,29.06-18.14,29.76-6.66.59-14.33-3.54-18.18-8.57-1.21-1.44-2.55-1.93-4.14-2.76-1.73-.99-5.57-2.61-8.28-3.34-10.96-4.8-22.71,2.3-33.54,4.02-8.38,1.38-10.62-4.03-12.23-10.85-1.1-5.98-4.2-11.77-1.56-17.47,1.65-3.79,5.32-5.75,8.98-7.44,3.19-1.6,6.9-3.8,9.57-5.85,2.35-1.79,4.16-4.03,6.33-5.97,3.5-2.73,7.9-3.83,11.96-5.67,4.5-1.8,9.92-7.08,14.65-3.93,4.29,3,6.54,13.38,13.35,9.45,2.63-1.77,3.98-6.85,5.29-8.04,1.45-1.27,2.87.54,3.82,1.8" class="cls-2"/>
    <path d="M1008.86,337.71c-1.06.57-2.91-.65-3.93-1.18-.65-.42-.29-.75.56-.82,1.14-.17,3.69.49,3.43,1.92" class="cls-2"/>
    <path d="M1016.74,337.72c-1.74.67-1.96-.32-.91-1.46,1.21-1.32,3.01-2.22,4.88-2.81,2.26-.72,4.52-.86,3.71.06-2.13,1.46-5.24,3.04-7.5,4.14" class="cls-2"/>
    <path d="M1002.1,332.76c.63-.17,3.13.17,2.69,1.09-.52.69-3.78,1.38-5.27,1.06-1.57-.66,1.64-2.25,2.38-2.13" class="cls-2"/>
    <path d="M1014.06,333.02c.16.17-.14.51-.77.92-1.08.76-2.75,1-4.11.98-.81.07-3.12-.56-2.03-1.48,1.18-.61,3.08-.15,4.43-.36.91-.07,1.74-.35,2.43-.09" class="cls-2"/>
    <path d="M978.12,327.55c2.77.33,18.81,3.13,18.11,6.24-2.16,1.27-7.42.14-11.84-.45-3.74-.71-7.27-1.3-10.25-2.65-6.72-3.21-.04-3.6,3.75-3.16" class="cls-2"/>
    <path d="M1085.03,325.68c-1.63,2.39-5.38,3.43-8.15,2.51-1.24-.4-.92-1.5.36-1.83,1.6-.44,3.37-.52,4.77-1.49,2.93-1.89,5.03-2.56,3.12.66" class="cls-2"/>
    <path d="M1037.42,315.03c5.49,1.8,11.79,2.14,17.85,2.7,6.35,1.16,12.84,4.22,17.71,8.47,3.03,3.03,6.81,7.68,8.72,11.05,1.08,2.09-.2,1.97-1.81,1.35-1.64-.59-3.58-1.41-5.35-1.94-4.52-1.43-8.67-1.68-13.3-1.44-2.95.18-6.04.05-8.35-1.95-3.67-3.08-5.84-6.73-10.62-9.55-1-.61-2.11-1.25-3.05-1.83-2.5-1.59-6.1-3.91-6.34-6.63.06-2.25,1.93-.77,4.39-.25" class="cls-2"/>
    <path d="M1018.57,308.51c-.15.35-.77.41-1.15.59-2.11.83-6.14,1.94-6.83,3.47-.15.82,1.3,2.19,1.98,3.1,2.21,2.23,1.96,7.04,1.47,9.33-.16,1.1-.86,1.05-1.76.69-1-.38-2.18-.84-3.28-.85-1.37-.03-2.62.43-3.67.39-2.63.33-2.67-4.42-2.3-6.48.64-5.23,5.45-8.77,10.3-10.05,2.9-.78,5.16-.54,5.25-.2" class="cls-2"/>
    <path d="M1028.05,309.98c.17,1.19-.52,2.64-.83,3.81-.2.59-.34.98-.68,1.32-.18.18-.41-.08-.71-.72-.36-.71-.81-2.13-.86-3.19-.44-3.98,2.21-4.77,3.05-1.4" class="cls-2"/>
    <path d="M972.89,326.6c-7.12,2.62-16.35-14.65-20.72-19.17-6.21-7.36-6.49-11.02,3.32-4.86,4.11,2.61,8.22,6.11,11.4,9.34,2.91,2.83,5.51,6.19,6.68,10.03.46,1.62.79,3.63-.6,4.61" class="cls-2"/>
    <path d="M1004.05,307.41c-.87,7.39-4.76,17.49-13.94,15.9-6.19-.85-13.54-7.2-9.03-13.58,2.61-3.63,6.7-5.5,10.47-8.48,9.52-7.15,14.61-6.49,12.54,6.01" class="cls-2"/>
    <path d="M1023.23,291.97c.8,3.19-.63,9.13-4.68,6.8-1.94-.64-8.86-3.8-5.26-6.18,2.5-2.38,8.34-5.94,9.9-.76" class="cls-2"/>
    <path d="M912.71,298.45c-4.3,1.57-4.29-7.83-2.5-8.9,1.14-.73,2.06.58,2.66,1.54,1.25,2.01,2.13,5.75-.03,7.28" class="cls-2"/>
    <path d="M1009.68,267.8c2.52-.31,2.64,6.09,3.73,8.04.76,2.27,2.05,4.01,3.07,5.94.32,1.53-5.92-.73-7.21-2.13-2.72-1.87-3.84-5.09-2.86-8.18.41-1.58,1.65-3.44,3.18-3.66" class="cls-2"/>
    <path d="M540.11,264.34c1.53-.85,11.4.85,9.8,3.55-.6.72-1.66,1.06-2.6,1.28-3.31.74-9.33.7-11.09.15-.31-.09-.61-.24-.78-.47-.95-1.91,2.9-3.95,4.53-4.48" class="cls-2"/>
    <path d="M983.5,267.69c-.97.86-2.51,1.34-3.61.57-2.03-1.8.69-4.07,2.72-4.18,3.14-.47,2.75,2,1.05,3.47" class="cls-2"/>
    <path d="M521.96,257.47c2.7.64,14.07,3.89,13.5,7-1.8,1.38-6.98-.96-10.66-2.5-4.22-2.25-9.06-3.08-13.74-3.53-4.14-.59.16-1.34,2.51-1.51,2.66-.25,5.42-.11,8.16.5" class="cls-2"/>
    <path d="M1009.86,258.38c-1.29,2.49-2.83.22-2.68-1.53-.16-1.99,1.79-5.42,3.76-5.42,1.92.69-.46,5.48-.98,6.75" class="cls-2"/>
    <path d="M1059.59,221.04c-3.2,7.31-9.03,9.98-16.65,10.31-3.25.26-6.19.91-8.48,3.13-1.68,1.62-5.28,5-3.73.08,4.42-8.46,16.43-8.67,21.95-16.08,1.22-1.24,6.7-8.8,7.73-5.61.48,1.36.52,4.83-.75,7.97" class="cls-2"/>
    <path d="M1066.33,203.8c7.73,4.21-4.11,7.93-7.97,8.61-1.76.11-2.97-.22-3.3-1.15-.14-1.96,1.1-4.45,2.4-6.04,2.21-2.66,5.66-3.13,8.7-1.51" class="cls-2"/>
    <path d="M565.8,193.67c-1.56.46-4.45-.52-6.01-1.26-.33-.18-.89-.58-.25-.7,1.12-.17,4.93.66,5.98,1.49.11.1.35.29.3.42" class="cls-2"/>
    <path d="M415.88,195.25c-1.68,1.33-10.72-3.04-11.89-4.84.39-2.68,12.34,2.6,11.91,4.78" class="cls-2"/>
    <path d="M579.21,188.22c.98.61,1.99,1.88,3.33,3.06,1.82,1.52,4.64,3.22,5.49,5.58.41.96-.16,1.96-1.06,2.53-1.35,1-4.52.52-6.62.16-2.53-.39-6.3-.68-7.78-2.62-1.93-1.91-.05-5.03,1.59-6.65,1.39-1.36,3.22-3.17,4.98-2.11" class="cls-2"/>
    <path d="M699.31,186c-1.73,1.17-4.52,2.13-6.52,1.3-3.5-2.16,1.04-7.73,4.46-8.04,5.28-1.17,6.32,3.82,2.23,6.61" class="cls-2"/>
    <path d="M705.37,170.61c2.25.03,3.48,1.92,4.75,3.54,1.36,1.81,4.09,4.37,6.23,6.71,2.31,2.22,6.3,6.23,1.86,8.55-3.7,1.86-9.84,2.89-13.63,1.84-2.25-.73-1.35-2.99-.51-4.5.71-1.47.6-3.14.46-4.76-.45-2.49-2.82-4.39-3.24-6.91-.31-2.41,1.53-4.42,3.98-4.47" class="cls-2"/>
    <path d="M508,153.34c2.73-.65,6.21.93,8.87,2.07,1.58.74,3.16,1.4,4.08,2.51.16.22.19.4.13.55-.18.62-3.56.72-4.84.89-2.48.2-5.14.22-7.46.34-1.29.01-2.84.16-3.92-.48-2.63-2.07.22-5.46,2.95-5.83" class="cls-2"/>
    <path d="M681.72,152.74c1.39.74,1.38,1.82.11,2.99-2.04,1.79-5.63,2.62-8.62,2.95-5.39.49-14.43.72-16.43-4.53.04-2.42,7.31-2.16,10-2.41,4.47-.06,11.21-.72,14.83.94" class="cls-2"/>
    <path d="M531.6,149.95c-1.37.52-4.54-.21-2.73-1.98,2.28-2.03,7.3.46,2.94,1.93" class="cls-2"/>
    <path d="M495.88,142.57c5.01,3.76,11.37,1.12,17.02,1.35,4.8.34,2.78,3.94-1.02,5.96-3.89,2.25-9.17,4.02-13.3,6.42-16.82,9.67-7.2,15.81,6.24,19.29,4.46,1.15,9.03,4.26,12.57,6.2,5.06,3.14,8.2.5,9.6-4.46.96-3.24,1.25-6.69,1.76-9.98.33-2.06.94-3.84,2.6-4.85,6.26-3.63,13.42,2.03,19.46,3.88,5.24,1.63,10.43,2.12,15.33,5.09,2.43,1.45,4.72,3.34,6.97,5.08,3.36,2.54,8.39,7.03,3.22,10.23-4.85,3.07-13.6,3-19.33,5.04-.88.14-10.42,3.8-5.38,3.3,3.47-.49,7.2.24,10.37,1.89,3.29,1.75,8.53,4.18,3.55,5.89-3.87,1.88-8.15.25-11.99,1.71-3.76,1.71-7.2,4.69-10.42,7-1.64,1.22-3.81,1.87-5.36,3.39-.92.93-1.81,1.89-2.88,2.65-2.04,1.37-2.39,2.42-3.05,4.36-.61,1.44-1.61,3.26-2.57,4.7-2.97,4.34-7.47,8.81-8.18,14.36-.51,1.9-.52,4.69-1.65,6.06-.5.48-2.1-.48-2.92-1.09-4.16-3.31-8.42-6.33-14.4-5.71-7.91.47-18.75,1.11-21.92,9.83-2.35,6.14.42,15.61,7.55,16.29,4.25.48,8.87-2.42,12.22-2.55,2.04-.21,2.61,1.8,2.67,3.51-.41,7.41,3.97,6.42,8.17,10.78,3.29,3.4,3.85,9.38,8.36,11.61,5.8,3.19,12.45-.36,18.21-2.4,2.09-.74,3.39-.71,4.79-.38,2.16.61,3.72.7,5.98.47,6.22-.66,12.87.36,18.63,2.41,3.41,1.42,6.16,3.9,9.44,5.76,4.32,2.48,9.38,4.3,13.36,7.06,3,2.03,5.18,4.97,7.29,7.82,4.22,5.92,11.08,7.39,17.85,9.48,7.19,2.58,19.06,5.4,17.5,15.26-.66,3.75-3.24,8.03-5.06,12.18-5.91,14.32-3.65,17.45-18.32,26.33-7.92,4.86-10.98,14.78-17.87,20.65-2.2,1.8-4.86,3.04-7.33,4.31-4.65,2.3-6.07,6.01-9.45,9.4-2.71,2.8-7.07,4.14-9.77,6.7-1.62,1.5-2.56,3.44-3.95,5.21-1.06,1.37-1.68,3-2.26,4.63-1.86,3.98-3.74,8.92-5.7,13.09-2.65,4.94-9.12,9.1-14.08,4.66-2.74-2.48-4.01-7-3.38-10.64.61-3.62,2.5-7.2,2.97-10.65.75-3.51.09-6.23.87-10.38,2.19-9.84,4.98-19.56,6.15-29.67.96-7.29,2.39-14.51-1.31-20.67-2.55-4.27-6.53-7.33-9.82-11.02-2.18-2.41-4.05-5.13-5.8-7.95-4.88-7.91-9.59-17.09-5.56-25.89,2.12-5.75,7.82-13.17,3.21-19.09-2.06-2.26-5.27-2.25-8.09-2.94-3.04-.55-5.63-2.54-7.92-4.64-9.4-10.08-23.16-12.62-36.04-16.55-6.95-1.93-12.32-6.77-16.36-12.5-.77-1.77-18.38-23.24-18.75-19.48.8,3.53,4.23,7.69,5.8,10.66.32.67.78,1.42.85,2.1,0,.18-.06.29-.2.3-2.71-.94-4.71-3.94-6.86-6.43-3.89-5.19-6.94-10.64-11.78-15.2-4.34-4.59-9.63-8.91-11.91-14.88-1.95-5.18-2.89-11.54-1.51-16.81.41-1.74.76-3.16.62-4.37-.19-1.62-1.26-2.75-3.19-4.39-1.94-1.59-4.32-3.42-6.38-5.02-4.01-2.9-7.24-6.54-11.04-9.66-8.28-6.68-20.4-9.61-31.05-11.02-2.61-.27-5.17-.12-7.75-.04-4.07.16-6.39-.2-8.58-.07-3.57-.17-6.89,2.56-10,4.58-5.24,3.38-12.89,6.89-18.71,7.68-.59,0-.43-.27.45-.78.61-.37,1.58-.92,2.64-1.53,2.4-1.45,8.3-4.44,3.16-6.51-3.23-1.48-11.42-2.3-10.56-7.63.49-1.97,3.35-4.02,3.89-4.99.35-.54-.22-.87-.71-1.08-2.1-.98-5.47-1.18-7.09-2.71-.2-.31,0-.61.43-.91.66-.43,1.62-.87,2.37-1.25,3.1-1.38.12-2.37.26-5.07.14-.86.57-1.44,1.42-2,14.52-7.4,32.78-3.06,48.61-2.16,6.24.65,12.38,1.38,18.5,1.41,5.78.08,11.5-.77,17.23-1.12,12.07-.33,24.24.61,35.94,3.38,4.29.92,8.35,1.87,12.74,1.5,3.58-.28,7.23-.78,10.86-.74,2.66-.02,5.9.13,8.91.23,4.88,0,11.43,1.05,15.29-.72,1.91-.92,2.5-3.18,3.91-4.61,2.44-2.79,7.61.31,10.6,2" class="cls-2"/>
    <path d="M435.66,135.17c3.21-.18,6.44.2,9.62.59,3.64.42,7.03.01,9.97.17,5.11.42,12.06,2.83,15.55,6.98,1.83,2.6-2.6,2.65-4.24,2.98-6.12.59-14.38.84-20.99.84-3.64-.02-16.02-.95-10.06-4,1.27-.66-1.78-.79-2.54-1.07-1.8-.53-7.24-.83-6.3-3.25,1.85-2.86,4.55-2.84,8.8-3.23" class="cls-2"/>
    <path d="M503.49,133.53c4.12-.21,7.48.79,11.93,1.11,2.93.24,5.85.67,8.74,1.25,5.7,1.11,11.8,1.63,17.48,3.36,6.7,1.61,11.37,5.52,16.37,8.23,1.29.81,8.28,3.72,5.76,5.35-1.54.89-4.8,1.01-5.96,2.08-.39.4-.44.94-.44,1.48.06,1.27-.13,2.66-.47,3.57-1.12,2.57-5.06,2.54-7.59,2.14-3.74-.8-9.63-2.71-13.81-3.58-2.34-.58-4.2-1.09-5.12-1.5-.39-.2-.69-.31-.67-.69,1.02-1.65,4.94-3.11,5.55-5.29.66-4.16-5.37-6.01-8.7-6.78-8.03-1.88-16.95-1.04-25.15-2.76-9.67-2.06-6.12-7.59,1.94-7.96" class="cls-2"/>
    <path d="M472.54,133.86c2.42-.59,5.78-.27,7.86,1.03,3.45,2.44-.12,5.17-3.76,4.92-5.36.11-15.32-3.4-4.27-5.91" class="cls-2"/>
    <path d="M489.78,137.04c-2.13.69-4.68,1.24-6.58.24-1.03-.54-1.28-1.77-.58-2.65,1-1.46,4.6-2,7.04-1.94,9.11.07,6.49,2.24.36,4.27" class="cls-2"/>
    <path d="M423.02,139.52c-4.67.98-11.5,2.27-13.42-2.73-.14-3.46,4.68-4.39,7.76-4.81,4.18-.43,15.64-.07,17.42,1.94.35,2.41-9.34,4.92-11.53,5.54" class="cls-2"/>
    <path d="M488.57,130.96c-.28,1.54-7.11,1.16-7.77-.11-.26-.48,1.13-1.08,2.65-1.35,1.84-.25,4.57-.12,5.11,1.36" class="cls-2"/>
    <path d="M849.57,141c-2.18,1.35-7.13.5-8.8-1.82-1.75-3.45,6.9-6.99,9.62-8.12,7.39-2.84,15.93-3.67,23.87-4.47,2.33-.17,6.41-.45,8.18-.04,1.39.73-4.98,1.82-9.39,2.61-6.14,1.13-13.3,2.42-18.25,5.95-2.91,2.22-3.03,4.28-5.15,5.84" class="cls-2"/>
    <path d="M977.53,125.02c3.8.83,7.97.64,10.39,3.22.84,1.29-.2,2.91,1.34,3.67,12.44,3.35,27.05.13,39.45,4.14,4.78,1.38,9.91,2.69,15.35,2.4,7.86-.54,14.93-2.55,23-2.42,18.46,1.2,36.51,6.24,54.89,7.46,9.69.98,27.14-4.96,31.04,6.42,3.16,13.64-20.59,14.17-29.39,16.81-4.48.93-7.98,2.76-10.42,6.3-2.79,4.27-7.81,13.18-13.86,10.2-1.93-1.4-1.55-4.15-.76-6.2,1.91-5.46,9.7-9.39,12.84-12.24,2.9-2.86-5.29-1.62-6.94-1.2-6.74,1.48-12.89,4.32-19.74,4.89-10.66-.09-23.66.09-32.2,7.65-2.88,2.89-.04,4.37,2.05,6.51,9.59,9.05-6.5,22.01-14.39,25.7-10.81,5.27-8.51,7.53-12.34,16.63-2.74,2.41-5.17-3.29-7.12-4.72-3.13-2.73-7.65-5.03-11.81-3.27-3.2,1.3-.28,4.64.53,6.69,1.56,3.88.81,9.71,1.73,14.55.8,10.23-9.5,17.49-17.95,21.1-4.39,2.02-12.22,2.14-14.83,5.73-3.66,6.57,5.6,17.34-2.44,22.63-4.88,2.99-9.72-3.24-14.19-2.27-6.88,3.14,8.04,19.51,3.98,21.13-5.91-3.09-8.45-11.23-9.82-17.33-.86-4.84-2.1-10.31-5.42-13.85-4.02-4.11-7.34-9.11-11.61-12.96-7.07-4.88-17.53,5.19-22.46,10.28-4.49,3.83-7.1,16.79-11.52,16.94-6.43-1.4-8.14-12.46-10.81-17.98-5.18-13.1-17.42-18.91-30.52-20.3-5.2-.75-10.23-1.63-14.78-3.5-3.62-1.38-8.32-4.12-11.93-4.35-3.11.56.13,5.5,1.55,6.95,4.78,5.09,16.76-.61,18.34,8.46,1.18,8.52-9.75,13.36-16.44,16.99-5.93,2.6-11.5,6.09-16.92,3.82-6.26-3.87-7.74-12.18-12.05-17.94-2.59-3.53-10.49-18.67-14.47-17.23-.49,1.28.78,4.4,1.81,6.11,1.2,2.26,2.69,5.29,4.05,7.99,4.07,8.56,9.3,17.87,16.38,24.25,5.15,5.66,17.91,1.45,17.59,8.27.03,3.43-3.72,9.45-6.68,12.83-7.21,8.84-19.54,16-18.56,28.68.18,5.21,1.93,10.73.45,15.85-2.47,7.4-9.43,13.12-11.83,20.49-2.73,7.92-7.38,15.51-13.4,21.49-5.88,5.01-14.83,8.6-22.39,6.38-6.42-2.43-8.28-8.96-11.33-16-2.84-7.06-6.06-14.23-7.49-21.73-1.66-8.05,1.68-16.51.08-24.29-1.17-5.27-4.29-9.93-5.95-15.03-2.41-6.74-3.35-15.58-11.21-18.02-13.4-4.56-29.91,5.12-41.78-4.97-7.35-5.78-13.29-13.83-12.96-23.6.12-7.59.78-15.66,5.65-21.9,5.46-6.3,10.5-13.07,16.36-18.93,6.24-5.54,15.04-6.27,22.96-7.6,5.67-.95,13.2-2.13,17.03-.81,3.84,1.2,5.75,4.57,8.71,7.18,4.97,4.95,13.4,6.04,19.91,5.06,4.16-.53,8.95-.83,13.48-.19,5.73.72,12.35,2.17,17.64-.64,4.31-2.17,6.79-7.24,2.19-9.64-2.76-1.44-8.24-1.3-11.83-3.04-5.32-2.37-3.23-6.86,1.36-8.65,3.54-1.63,8.63-1.94,13-1.95,6.08-.23,14.07.68,10.15-6.04-1.11-2.18-2.62-5.36-4.86-5.93-1.56.21-3.3,1.62-5.35,2.15-1.68.56-3.07.14-4.82-.08-6.71-1.72-9.68,5.07-13.62,9.15-2.61,2.98-7.6,2.88-9.53,6.46-2.95,7.62-7.04-.51-12.38-5.9-2.53-2.81-7.72-7.32-10.64-7.22-3.35.71,5.47,7.54,5.91,9.01,1.77,2.72.19,3.76-2.05,2.98-2.84-.85-5.15-3.03-7.64-4.73-3.93-2.78-9.17-4.55-13.94-4.25-12.49.19-17.9,16.23-30.41,15.7-6.37-.1-10.3-7.51-6.38-12.38,2.55-3.39,8.75-3.66,12.02-6.7,2.9-2.95-.45-7.99,2.96-10.52,4.07-2.44,9.73-4.8,14.27-7.35,5.03-2.46,8.38-6.19,12.29-9.43,2.09-1.86,2.81-.71,5.07.8,7.48,5.31,19.77,1.85,26.64-2.74,2.46-2.01,4.72-4.25,7.73-5.44,2.02-1.06,4.48-2.4,3.46-2.94-2.86-1.01-7.91-1.59-8.86-4.9-.38-2.21.91-4.92.9-6.64-.06-.59-.64-.61-1.18-.52-1.06.22-2.28.65-3.4,1.27-7,3.34-8.16,11.82-13.14,16.85-4.58,3.62-10.62.14-15.35-1.57-7.35-3.1-10.77-6.37-3.74-12.29,12.85-9.31,28.1-18.47,44.47-18.6,6.06-.2,10.64,1.11,16.23,2.57,4,1.35,12.95,2.14,14.56,5.9-.54,2.26-8.42,1.91-8.56,4.36,2.12,2.55,7.79,1.66,10.98.51,3.89-.95,8.15-4.41,11.5-5.46,4-.83,7.74.3,12.08-.6,4.78-.7,9.52-1.69,14.3-1.74,8.44-.53,17.02-2.61,25.62-1.45,4.32.71,5.06-2.87,7.66-5.63,1.73-1.76,4.86-1.84,6.76-.21,2.42,1.84,2.12,6.31,2.83,8.33.34,1.22,1.37,2.06,1.93.5.96-2.32,1.5-5.22,2.18-7.64,1.87-4.21,8.84-1.64,12.87-3.78,14.05-4.64,28-8.17,43.26-9.35,8.33-1.16,16.42-3.01,24.51-1.59M831.61,212.6c2.03,3.78,2.5,7.65,5.93,9.97,5.75,3.72,11.48-.91,10.76-7.23-.43-6.52-9.22-5.18-5.96-13.38.43-1.44.58-2.53-1-2.98-4.26-.83-10.75.69-12.34,5.15-.82,2.68,1.15,5.57,2.53,8.32" class="cls-2"/>
    <path d="M488.12,124.65c-1.3.66-11.13-.49-3.87-.66,1.49,0,3.12.13,3.65.35.14.06.34.13.26.27" class="cls-2"/>
    <path d="M483.43,123.31c-1.81.9-5.23.92-6.89-.54-.41-.36-.36-.83.13-1.04.41-.67,8.13-.03,6.86,1.51" class="cls-2"/>
    <path d="M553.98,110.97c7.29.25,20.16.83,6.15,3.96-2.88.71-8.15,2.67-13.91,3.6-5.3,1.02-10.99,1.59-15.6,3.92-2.54,1.4-3.92,3.19-7.39,4.12-5.19,1.58-17.53,2.01-23.65.33-2.41-.75,1.92-2.55,2.67-3.35.19-.16.34-.33.45-.51.6-.81-.24-2.22,1.72-3.12,1.37-.74,3.62-1.19,4.78-2.01-.04-.41-3.87-.49-4.89-.7-2.08-.25-11.29-1.1-9.81-2.7.39-.38,1.34-.75,2.78-1.02,3.45-.63,7.45-.88,11.04-1.22,14.94-1.51,30.39-1.7,45.42-1.31" class="cls-2"/>
    <path d="M652.74,109.81c1.53,0,13.79,1.19,8.86,2.25-4.27.64-11.12.4-15.73.88,1.34.32,3.62.23,5.37.34,4.62.15,9.01.73,13.41,1,4.6.34,11.99-.35,17.6-.13,7.33.53.62,2.3-3.28,2.99-1.74.43-3.97.65-4.93,2.32-.35.59-.53,1.25-.76,1.89-.6,2.07-2.35,4.11-2.66,6.36-.34,1.34-.7,2.58-.89,3.93-.75,1.65-2.55,2.65-4.09,3.57-2.43,1.13-3.05,1.83-3.04,3.71-.25,1.08-1.33,1.66-2.26,2.41-.67.44-1.22.72-1.29.95-.11.32.2.6.23.95.06.84-.4,1.19-1.37,1.69-1.8.83-4.75,1.47-6.94,1.95-9.96,2.25-20.17,4.77-29.28,8.99-9.4,4.47-11.89,14.88-24.46,9.06-4.98-2.65-10.33-6.28-11.5-11.94-.3-1.83.19-3.6.19-5.39,0-1.31-.5-2.39-.86-3.17-.76-1.41-1.19-2.56-1.98-3.89-1.4-1.59-3.71-2.86-5.4-4.27-6.98-6.31-14.35-7.91-23.92-8.14-3.03-.17-6.78-.34-9.38-.88-3.07-.61-1.56-1.48-1.49-2.01.03-.1.01-.18-.08-.27-.53-.35-1.32-.43-2.02-.63-.91-.21-2.01-.49-2.79-.83-.53-.24-.85-.49-.73-.75,1.04-1.2,6.32-1.8,8.88-2.81,3.53-1.34,4.42-2.93,8.53-4.16,13.37-3.64,28.21-3,42.02-2.65,7.51.57,7.46-1.72,16.72-2.76,12.73-1.2,26.04-1.44,39.08-.6" class="cls-2"/>
  </g>
</svg>